# xmcd
#
# Track frame offsets:
#	150
#	17792
#	36460
#	65866
#	86416
#	110196
#	131834
#	150575
#	175068
#	196594
#
# Disc length: 2890 seconds
#
# Revision: 1
# Processed by: cddbd v1.4PL0 Copyright (c) Steve Scherf et al.
# Submitted via: audiograbber 1.80
#
DISCID=880b480a
DTITLE=Josipa Lisac - Zivot
DYEAR=1900
DGENRE=
TTITLE0=Ispocetka
TTITLE1=Zivot je samo most
TTITLE2=Pjesma za tebe
TTITLE3=Bijeg
TTITLE4=Avantura
TTITLE5=Vecer u Luna parku
TTITLE6=Gimme some lovin´
TTITLE7=Traje noc
TTITLE8=Pjesma za tebe (remix)
TTITLE9=Ispocetka (remix)
EXTD=
EXTT0=
EXTT1=
EXTT2=
EXTT3=
EXTT4=
EXTT5=
EXTT6=
EXTT7=
EXTT8=
EXTT9=
PLAYORDER=
